<svg xmlns="http://www.w3.org/2000/svg" version="1.0" width="1706.667"  height="1080" viewBox="0 0 1280 810"><path d="M181 .6c-19.7 2.5-28.2 5.5-55 19-11.3 5.7-23.2 11-26.5 11.9-4.4 1.3-13.4 1.9-34.5 2.5-31.3.9-40.4 2.1-50.4 6.8-3.4 1.6-8 4.5-10.3 6.4L.1 50.8l7.7 3.1C12 55.6 22.9 59.7 32 63c30.4 11.3 47.4 20.6 59.9 32.9 14.4 14.2 23.9 33.4 28.3 57.6 2.3 12.2 1.5 46.5-1.5 72.5-6.3 54.1-6.2 75.8.8 108.8 18 85.9 86.9 164.3 179.5 204.5 24.6 10.7 53.9 19.5 77.3 23.3l10.7 1.7-8.9 2.3c-4.9 1.2-15 4.3-22.3 6.8-24.3 8.3-33.2 8.5-55 1.2-7.3-2.5-16.2-5-19.7-5.6-13.9-2.5-22 1.9-25.6 13.9-.7 2.3-.7 2.3 3.1-.5 3.3-2.6 4.5-2.9 10.8-2.8 6 0 8.7.7 17.6 4.4 5.8 2.4 12.5 4.8 14.9 5.5 7.5 1.9 6 3.1-4.6 3.9-23.8 1.6-46.9 6.5-59.8 12.6-13 6.1-19.2 12.8-21.1 22.5l-.7 4 3.7-3.3c11.6-10.1 39.1-17.4 113.4-29.7 12.3-2 22.6-3.4 23-3.1 1.3 1.4-4.3 10.1-15 23.2-13.5 16.5-16.9 21.3-19.3 27.6-2.7 7.3-1.7 12.4 3.6 17.1 2.3 2 4.4 3.6 4.6 3.4.2-.3-.1-1.6-.7-3.1-3.3-8.7-.2-13.7 16.8-27 4-3.2 10.1-9.2 13.5-13.4 10.4-12.9 18.7-21.1 24.1-23.7 6.5-3.1 14.3-4.2 38.6-5.5 25.3-1.3 41.3-5.1 46.3-10.9 5.4-6.4 9.2-7.4 15.9-4l4.1 2.1-.6-3c-.6-3.1-.6-3.1 4.6-3.6 10.7-1.1 22.5-1.3 31.5-.7l9.3.6-5.8 8.2c-9.5 13.3-21.5 27.1-47.4 54.8-13.4 14.3-29 31.2-34.6 37.5-14.6 16.5-26.6 26.4-36.3 30.1-7.1 2.7-17.8 2.4-34-.8-17.6-3.4-30.8-3.7-36.5-.6-4.8 2.5-8.6 6.5-11 11.3l-1.7 3.5 2.8-2.6c3.5-3.2 8.6-5.9 11.1-5.9 2.1 0 6.4 2.1 13.9 6.9 2.8 1.8 7.3 3.6 10 4l4.9.8-3.7 1.7c-7 3-15 4.6-35.2 6.6-27.5 2.8-34.8 4.6-44 10.9-4.2 2.9-8.1 9.1-10.1 15.9-.6 2.1-.2 2 4.2-1.4 9.9-7.6 11-7.8 37.8-7.9l24-.2 15.5-4.1c8.5-2.2 25.9-7.4 38.5-11.5l23-7.5.3 2.5c.5 3.8-3.5 15.9-8.2 24.8-2.4 4.4-8.5 15-13.8 23.7-6.2 10.2-10.4 18.4-12.2 23.8-1.5 4.5-2.5 8.4-2.3 8.7.6.5 19.1-21.5 26.6-31.6 3.1-4.2 10.2-14.4 15.8-22.6 5.6-8.3 12.7-17.6 15.7-20.7 10.4-10.6 24.3-16.2 48.9-19.8 16.3-2.3 21.5-4.4 30.6-12.4 3.5-3 7.3-5.8 8.3-6.2 4-1.2 8.7.7 14.3 5.8 4.8 4.4 5.5 4.8 5.1 2.7-.3-1.3-.8-4.1-1.1-6.2-.3-2.1-1.9-5.3-3.6-7.2-7.5-8.5-20.4-8.6-52.7-.6-23.1 5.8-31.9 7.2-30.9 5 1.4-3.5 4.8-11.9 6.8-17.2 3.1-8.2 14-24.2 25.7-37.7 17.5-20.2 45.2-46.2 64.2-60.2 10-7.3 16.2-10.7 30.5-16.6 60.3-24.9 103.3-50.2 143.6-84.7 13.9-11.8 24.2-17.8 37.9-21.8 12.6-3.8 21.5-5.3 53-9.2 36.9-4.5 42.3-5.5 61.5-12.2 25.5-8.8 35.2-11.4 44.5-12 5.5-.3 20.5.6 42.5 2.6 18.7 1.7 45.5 4 59.5 5.1 48 3.8 52.9 4.3 122.5 12.4 57.2 6.7 103 9.3 115.7 6.7 6.4-1.4 12.1-4.7 12.6-7.5.6-2.9-3.7-6.5-9.7-8.2-9.8-2.9-9.5-2.6-3.8-3.8 3.6-.8 6.7-4 6.7-6.9 0-1.2-1.1-3.8-2.4-5.7-2.3-3.5-2.3-3.6-.6-5.8 2.4-2.9 4.3-12.3 3.5-16.5-1.7-8.2-9.4-15-21.5-18.9-5.7-1.8-10.2-2.2-35.5-2.8-18-.5-36-1.6-47.5-2.9-10.2-1.2-39.6-4.6-65.5-7.6-82.1-9.5-128-13.3-163-13.6l-13-.1 8-2c4.4-1 20.8-4.2 36.5-6.9 15.7-2.8 31.3-5.6 34.8-6.2 3.9-.7 6.2-1.6 6.2-2.4 0-2.2-8.1-9.6-14-13-7.3-4.1-20.2-8.6-32.5-11.1-9.7-2-50.6-8.5-86.5-13.7-31.8-4.6-54-9.4-72.5-15.7-4.9-1.7-19.6-8.1-32.5-14.3-39.8-19.1-58-26.3-117.5-46-31.8-10.5-42.4-15-83.6-35C521 157.8 513.2 154.7 466 141c-74.2-21.5-87.3-28.4-128-67.5-24.1-23.2-35.1-32.4-50.5-42.7C266.6 16.9 245.2 7.6 223.2 3 213.7 1 189-.4 181 .6z"/></svg>